<svg xmlns="http://www.w3.org/2000/svg" viewBox="0 0 131 26" width="131" height="26"><title>logo-final-02-ai</title><style>		.s0 { fill: #112d4e } 		.s1 { fill: #009ddc } 	</style><g id="Layer 1"><g id="&lt;Group&gt;"><path id="&lt;Path&gt;" class="s0" d="m17.5 7.4h1.5c0.5 0 0.8 0.3 0.8 0.9v16.4c0 0.6-0.3 0.9-0.8 0.9h-1.5c-0.5 0-0.8-0.3-0.8-0.9v-16.4c0-0.6 0.3-0.9 0.8-0.9z"></path><path id="&lt;Compound Path&gt;" class="s0" d="m31.5 9.9q-0.5 0-1 0c-2.7 0-5.2 2.4-5.2 5.6v9.2c0 0.6-0.2 0.9-0.8 0.9h-1.5c-0.5 0-0.8-0.3-0.8-0.9v-16.4c0-0.6 0.3-0.9 0.8-0.9h1.5c0.6 0 0.8 0.3 0.8 0.9v1.9c1.2-1.8 3.3-3.2 5.8-3.2q0.4 0 0.7 0c0.6 0.1 0.8 0.4 0.8 1l-0.2 1.3c0 0.5-0.3 0.7-0.9 0.6z"></path><path id="&lt;Compound Path&gt;" class="s0" d="m37.3 25.6h-1.5c-0.5 0-0.8-0.3-0.8-0.9v-16.4c0-0.6 0.3-0.9 0.8-0.9h1.5c0.5 0 0.8 0.3 0.8 0.9v1.8c1.3-1.8 3.2-3.1 5.4-3.1 2.7 0 5 1.4 6.1 3.9 1.2-2.3 3.4-3.9 6.1-3.9 3.9 0 6.8 2.9 6.8 7.4v10.3c0 0.6-0.3 0.9-0.8 0.9h-1.5c-0.5 0-0.8-0.3-0.8-0.9v-10.1c0-2.9-1.7-4.7-4.3-4.7-2.2 0-4.8 2.4-4.8 5.6v9.2c0 0.6-0.3 0.9-0.8 0.9h-1.5c-0.5 0-0.8-0.3-0.8-0.9v-10.1c0-2.9-1.7-4.7-4.3-4.7-2.2 0-4.8 2.4-4.8 5.6v9.2c0 0.6-0.3 0.9-0.8 0.9z"></path><path id="&lt;Compound Path&gt;" fill-rule="evenodd" class="s0" d="m73.4 7c2.7 0 5 1.2 6.6 3.2v-1.9c0-0.6 0.2-0.9 0.8-0.9h1.5c0.5 0 0.8 0.3 0.8 0.9v16.4c0 0.6-0.3 0.9-0.8 0.9h-1.5c-0.6 0-0.8-0.3-0.8-0.9v-1.9c-1.6 2-3.9 3.2-6.6 3.2-5.1 0-8.8-4.2-8.8-9.5 0-5.3 3.7-9.5 8.8-9.5zm0.5 16.1c3.5 0 6.1-2.9 6.1-6.6 0-3.7-2.5-6.6-6.1-6.6-3.6 0-6.2 2.9-6.2 6.6 0 3.7 2.7 6.6 6.2 6.6z"></path><path id="&lt;Compound Path&gt;" fill-rule="evenodd" class="s0" d="m95.7 26c-2.7 0-5-1.2-6.6-3.2v1.9c0 0.6-0.3 0.9-0.8 0.9h-1.5c-0.5 0-0.8-0.3-0.8-0.9v-23.9c0-0.5 0.3-0.8 0.8-0.8h1.5c0.5 0 0.8 0.3 0.8 0.8v9.4c1.6-2 3.9-3.2 6.6-3.2 5.1 0 8.8 4.2 8.8 9.5 0 5.3-3.7 9.5-8.8 9.5zm-0.5-16.1c-3.6 0-6.1 2.9-6.1 6.6 0 3.7 2.6 6.6 6.1 6.6 3.5 0 6.1-2.9 6.1-6.6 0-3.7-2.5-6.6-6.1-6.6z"></path><path id="&lt;Compound Path&gt;" class="s0" d="m107.7 0h1.5c0.6 0 0.8 0.3 0.8 0.8v23.9c0 0.6-0.2 0.9-0.8 0.9h-1.5c-0.5 0-0.8-0.3-0.8-0.9v-23.9c0-0.5 0.3-0.8 0.8-0.8z"></path><path id="&lt;Compound Path&gt;" fill-rule="evenodd" class="s0" d="m122.1 23.2c2.2 0 3.9-0.7 5.5-2.3q0.6-0.5 1.2 0l0.7 0.6q0.5 0.6 0 1.2c-1.8 2-4 3.3-7.3 3.3-5.8 0-9.7-4.2-9.7-9.5 0-5.3 4-9.5 9.4-9.5 5.3 0 9.1 4.1 9.1 9.1q0 0.3 0 0.6c-0.1 0.6-0.4 0.8-0.9 0.8h-14.4c0.3 3.2 3 5.7 6.4 5.7zm-6.3-8.3h11.9c-0.5-3-2.8-5.1-5.8-5.1-3 0-5.5 2.2-6.1 5.1z"></path><path id="&lt;Path&gt;" class="s1" d="m16.7 1c0-0.6 0.4-1 1-1h1.1c0.5 0 1 0.4 1 1v1c0 0.6-0.5 1-1 1h-1.1c-0.6 0-1-0.4-1-1z"></path><path id="&lt;Path&gt;" class="s1" d="m13.4 11.3h-7.4-3-1.9c-0.6 0-1.1 0.5-1.1 1.1v12.4c0 0.4 0.3 0.8 0.8 0.8h1.5c0.4 0 0.7-0.4 0.7-0.8v-10.5h10.4c0.4 0 0.7-0.3 0.7-0.8v-1.4c0-0.5-0.3-0.8-0.7-0.8z"></path><path id="&lt;Path&gt;" class="s1" d="m13.4 0h-12.6c-0.5 0-0.8 0.4-0.8 0.8v1.6c0 0.4 0.3 0.6 0.6 0.6h5.4 7.4c0.4 0 0.7-0.3 0.7-0.7v-1.5c0-0.4-0.3-0.8-0.7-0.8z"></path></g></g></svg>